<?xml version="1.0" standalone="no"?>
<!DOCTYPE svg PUBLIC "-//W3C//DTD SVG 20010904//EN"
 "http://www.w3.org/TR/2001/REC-SVG-20010904/DTD/svg10.dtd">
<svg version="1.0" xmlns="http://www.w3.org/2000/svg"
 width="515.000000pt" height="515.000000pt" viewBox="0 0 515.000000 515.000000"
 preserveAspectRatio="xMidYMid meet">
<metadata>
Created by potrace 1.14, written by Peter Selinger 2001-2017
</metadata>
<g transform="translate(0.000000,515.000000) scale(0.100000,-0.100000)"
fill="#000000" stroke="none">
<path d="M2278 5145 c-2 -2 -30 -6 -63 -9 -112 -12 -180 -22 -180 -26 0 -1
-11 -3 -25 -6 -66 -11 -77 -13 -97 -18 -13 -3 -33 -9 -45 -12 -13 -3 -35 -8
-50 -11 -16 -3 -28 -10 -28 -15 0 -5 -3 -7 -8 -4 -4 2 -46 -9 -92 -26 -47 -16
-91 -30 -97 -30 -7 -1 -13 -5 -13 -10 0 -4 -3 -7 -7 -6 -10 2 -52 -16 -123
-50 -30 -15 -58 -27 -62 -27 -4 0 -17 -8 -28 -17 -11 -10 -27 -18 -35 -18 -7
0 -16 -4 -20 -9 -3 -6 -26 -20 -50 -32 -25 -12 -45 -27 -45 -31 0 -5 -5 -6
-10 -3 -5 3 -10 2 -10 -3 0 -5 -8 -12 -17 -16 -25 -8 -57 -29 -66 -43 -4 -7
-14 -13 -21 -13 -8 0 -17 -7 -20 -16 -4 -9 -9 -14 -12 -11 -3 3 -14 -2 -24
-11 -9 -9 -30 -27 -46 -39 -16 -12 -39 -30 -51 -40 -12 -10 -30 -25 -40 -33
-60 -51 -123 -110 -116 -110 4 0 -4 -8 -17 -17 -14 -10 -33 -28 -43 -40 -11
-13 -33 -39 -50 -58 -56 -59 -106 -120 -105 -125 1 -3 -11 -18 -26 -35 -16
-16 -39 -46 -51 -66 -13 -20 -30 -42 -37 -50 -8 -8 -25 -35 -38 -61 -13 -26
-27 -45 -31 -43 -4 3 -10 -8 -14 -25 -4 -16 -11 -30 -16 -30 -5 0 -9 -7 -9
-15 0 -8 -4 -15 -8 -15 -5 0 -9 -6 -9 -13 0 -6 -11 -30 -25 -52 -14 -22 -25
-44 -26 -48 0 -4 -12 -32 -26 -62 -36 -75 -50 -109 -48 -117 1 -5 -2 -8 -7 -8
-8 0 -25 -53 -24 -77 0 -7 -3 -13 -7 -13 -4 0 -11 -12 -16 -27 -4 -16 -8 -30
-9 -33 -1 -3 -7 -25 -14 -50 -7 -25 -15 -52 -18 -60 -2 -8 -4 -16 -4 -17 0 -2
-6 -21 -15 -44 -8 -23 -12 -44 -9 -47 2 -2 0 -13 -6 -24 -6 -11 -12 -34 -14
-51 -2 -18 -6 -43 -9 -57 -13 -60 -16 -78 -21 -125 -3 -27 -8 -66 -11 -85 -10
-60 -14 -461 -4 -455 5 3 5 -7 0 -24 -4 -16 -6 -32 -3 -35 4 -3 6 -19 5 -36 0
-16 2 -30 6 -30 4 0 7 -15 7 -32 1 -37 11 -113 24 -175 4 -24 6 -43 3 -43 -2
0 0 -6 5 -12 5 -7 10 -24 11 -37 0 -14 5 -36 11 -50 5 -14 15 -50 21 -78 7
-29 16 -53 22 -53 5 0 7 -4 4 -9 -4 -5 -1 -22 5 -38 6 -15 12 -35 14 -43 2 -8
15 -43 28 -77 14 -34 22 -64 19 -67 -3 -3 0 -6 6 -6 7 0 12 -5 12 -12 0 -22
116 -258 133 -269 5 -3 9 -10 9 -15 1 -15 78 -137 91 -142 4 -2 5 -8 1 -13 -3
-5 0 -9 5 -9 6 0 11 -6 11 -13 0 -7 15 -30 34 -51 19 -20 35 -40 36 -44 2 -9
50 -70 78 -98 12 -13 22 -26 22 -29 0 -3 27 -33 60 -67 33 -34 60 -66 60 -71
0 -4 5 -5 10 -2 6 3 10 -1 10 -9 0 -9 7 -16 16 -16 8 0 12 -4 9 -10 -3 -5 -3
-10 2 -10 4 0 27 -17 49 -38 23 -20 58 -50 78 -67 19 -16 50 -43 68 -58 18
-16 48 -35 65 -44 18 -8 30 -19 27 -24 -3 -5 0 -9 7 -9 7 0 27 -11 46 -26 18
-14 33 -22 33 -18 0 4 7 -1 15 -12 8 -10 15 -15 15 -11 0 4 10 -1 22 -13 12
-11 27 -20 34 -20 6 0 17 -7 24 -15 7 -8 16 -12 21 -9 5 3 9 1 9 -4 0 -9 20
-18 44 -20 5 0 12 -4 15 -9 9 -14 251 -127 251 -117 0 2 18 -5 40 -16 22 -11
40 -18 40 -16 0 3 15 -1 33 -9 17 -7 34 -13 37 -13 3 -1 12 -3 20 -6 29 -10
136 -35 175 -42 22 -3 42 -9 45 -13 3 -3 19 -7 35 -7 39 -2 120 -12 120 -14 0
-13 437 -19 535 -7 36 4 80 9 98 10 17 1 32 5 32 10 0 4 4 6 9 3 5 -4 42 1 83
10 40 8 81 17 91 19 10 2 27 7 37 10 10 3 27 8 37 10 10 2 50 13 88 25 39 12
70 21 71 19 0 -2 8 2 17 9 9 8 21 11 27 7 5 -3 10 -2 10 2 0 5 17 15 38 22 20
8 57 23 81 34 24 11 50 20 57 20 8 0 14 3 14 7 0 4 19 15 43 26 23 10 48 24
55 31 7 7 17 13 22 13 12 0 160 90 178 107 7 7 19 13 27 13 7 0 15 4 17 9 2 5
26 25 55 44 28 19 49 38 46 41 -4 3 -1 6 5 6 6 0 22 10 36 23 13 12 43 37 65
55 22 18 70 62 105 97 36 34 68 60 72 56 4 -3 4 -1 1 6 -4 6 4 20 18 31 13 11
21 22 18 26 -3 3 2 6 12 6 10 0 16 3 12 6 -3 3 10 24 30 45 20 21 43 49 51 61
9 13 18 25 21 28 15 13 91 120 91 128 0 5 9 17 20 27 11 10 20 24 20 32 0 7 5
13 10 13 6 0 10 4 10 9 0 5 11 26 25 48 14 21 26 43 26 48 1 19 32 44 93 76
33 17 73 40 87 50 14 10 29 16 33 12 3 -3 6 -1 6 5 0 7 7 12 15 12 7 0 18 8
24 18 5 9 13 17 18 16 8 -1 52 24 63 36 3 3 18 14 35 24 32 21 47 32 76 58 10
10 22 18 26 18 4 0 17 12 29 26 13 14 25 25 29 24 3 0 13 6 21 15 14 14 14 16
0 21 -9 4 -32 -8 -58 -30 -23 -20 -46 -36 -50 -36 -5 0 -6 -5 -3 -10 3 -5 0
-10 -7 -10 -11 0 -65 -38 -115 -80 -7 -6 -13 -7 -13 -3 0 4 -7 -1 -15 -11 -8
-11 -15 -17 -15 -13 0 4 -10 -1 -22 -13 -12 -11 -26 -20 -31 -20 -5 0 -20 -9
-34 -20 -14 -11 -29 -17 -34 -14 -5 3 -9 0 -9 -6 0 -10 -48 -35 -62 -32 -5 1
-8 -2 -8 -7 0 -5 -7 -11 -15 -15 -13 -5 -14 -2 -1 22 18 36 52 113 100 225 29
67 56 159 51 168 -4 5 -1 9 4 9 6 0 11 9 11 19 0 11 5 23 10 26 6 4 8 10 5 15
-3 5 -1 19 5 31 7 11 14 37 16 56 3 20 8 41 12 47 3 6 5 19 4 29 -2 9 2 17 8
17 6 0 9 4 6 9 -3 5 1 44 9 88 14 73 22 140 28 223 2 19 6 41 11 48 4 7 2 12
-5 12 -9 0 -9 3 0 14 8 9 8 16 2 20 -6 4 -7 16 -2 29 9 26 7 164 -2 174 -4 3
-2 12 4 19 7 8 7 14 0 18 -7 4 -7 15 -1 30 5 13 7 26 4 29 -12 12 -13 61 -2
75 10 12 10 14 1 8 -9 -5 -13 2 -14 26 -1 18 -3 42 -5 53 -4 24 -13 88 -19
130 -5 32 -11 62 -22 110 -4 17 -7 35 -8 40 -1 6 -3 12 -4 15 -2 3 -4 14 -6
25 -2 11 -11 45 -20 75 -9 30 -17 60 -19 65 -2 6 -6 18 -10 27 -4 9 -5 22 -1
28 3 5 -1 13 -9 16 -9 3 -14 9 -12 13 2 3 -1 17 -7 31 -5 14 -12 34 -14 44 -2
11 -7 24 -12 30 -4 6 -11 23 -15 39 -3 15 -11 27 -16 27 -5 0 -7 6 -4 14 3 8
0 17 -5 21 -6 3 -9 11 -6 16 4 5 2 9 -3 9 -10 0 -36 58 -33 73 0 4 -4 7 -10 7
-5 0 -7 5 -4 10 3 6 1 10 -5 10 -6 0 -9 4 -5 9 3 5 1 12 -4 15 -5 3 -21 29
-36 58 -39 74 -49 92 -56 98 -3 3 -18 26 -33 53 -15 26 -33 47 -39 47 -6 0 -7
3 -4 6 6 7 -47 81 -68 96 -5 4 -7 8 -3 8 5 0 -1 10 -11 23 -11 12 -29 33 -41
47 -96 117 -253 280 -268 280 -6 0 -13 7 -16 16 -3 8 -11 12 -17 8 -7 -4 -9
-3 -5 4 3 6 -8 21 -26 33 -18 13 -46 36 -63 51 -16 15 -33 28 -37 28 -4 0 -22
14 -40 30 -18 17 -38 30 -45 30 -7 0 -13 5 -13 10 0 6 -7 10 -15 10 -8 0 -15
5 -15 10 0 6 -7 10 -15 10 -8 0 -15 5 -15 10 0 6 -6 10 -13 10 -7 0 -22 8 -33
18 -10 9 -41 28 -69 42 -27 14 -51 28 -53 33 -2 4 -7 7 -12 7 -4 0 -55 23
-113 50 -58 28 -110 50 -116 50 -6 0 -21 5 -34 12 -48 24 -57 28 -76 28 -11 0
-23 5 -26 10 -3 6 -16 10 -29 10 -12 0 -26 3 -30 7 -3 4 -12 8 -19 9 -7 1 -39
9 -72 18 -63 18 -77 21 -135 30 -19 3 -46 8 -60 11 -31 6 -95 16 -140 21 -43
6 -437 13 -442 9z"/>
</g>
</svg>
